<?xml version="1.0" encoding="UTF-8"?>
<svg version="1.1" xmlns="http://www.w3.org/2000/svg" width="1500" height="1500">
<path fill="#000000" d="M0 0 C1.24299864 -0.00538554 2.48599728 -0.01077108 3.76666254 -0.01631981 C7.20969971 -0.02814373 10.65225234 -0.02653161 14.09527028 -0.019153 C17.81106444 -0.01442241 21.5268067 -0.02693007 25.24258423 -0.03717041 C32.51865191 -0.05436477 39.79463325 -0.05519726 47.07071597 -0.04995751 C52.98348751 -0.04591646 58.89623352 -0.04735858 64.80900383 -0.05270576 C65.65045709 -0.05345419 66.49191036 -0.05420261 67.3588622 -0.05497371 C69.06823235 -0.05650518 70.77760249 -0.05804352 72.48697262 -0.05958868 C88.51554114 -0.07331554 104.54406085 -0.06787429 120.57262825 -0.05640347 C135.241466 -0.04646656 149.9101777 -0.05941931 164.57899601 -0.08333766 C179.63889851 -0.10770889 194.69874224 -0.11734167 209.75866407 -0.11068493 C218.21457456 -0.10718886 226.67038804 -0.10945051 235.12628365 -0.12693596 C242.32300924 -0.14163307 249.51956947 -0.14232592 256.71629173 -0.12486505 C260.38886471 -0.1163328 264.06114198 -0.11425937 267.7336998 -0.1295166 C271.71234898 -0.14584113 275.69053828 -0.13126242 279.66918945 -0.11352539 C280.83338081 -0.1231304 281.99757217 -0.1327354 283.19704205 -0.14263147 C290.95825615 -0.0711235 290.95825615 -0.0711235 294.9962225 2.20806789 C296.77110291 4.38768005 296.77110291 4.38768005 297.27110291 7.76268005 C296.37777033 14.23934123 292.70073995 19.19593386 289.37266541 24.6962738 C284.02832842 33.67736694 279.40299601 43.02694724 274.77110291 52.38768005 C273.79291946 54.34650469 272.81387707 56.30490086 271.83360291 58.26268005 C271.23225525 59.46537537 271.23225525 59.46537537 270.61875916 60.69236755 C270.33903259 61.25182068 270.05930603 61.8112738 269.77110291 62.38768005 C269.11110291 62.38768005 268.45110291 62.38768005 267.77110291 62.38768005 C267.58547791 63.22299255 267.58547791 63.22299255 267.39610291 64.07518005 C266.71133435 66.6088237 265.77976527 68.96689037 264.77110291 71.38768005 C264.11110291 71.38768005 263.45110291 71.38768005 262.77110291 71.38768005 C262.54422791 72.37768005 262.31735291 73.36768005 262.08360291 74.38768005 C261.03941141 78.01714566 259.39150156 80.75635014 257.32579041 83.8915863 C255.31366164 87.12211466 253.54582024 90.45985158 251.77110291 93.82518005 C251.07580836 95.14159579 250.3804962 96.45800222 249.68516541 97.7743988 C249.35548767 98.39878845 249.02580994 99.0231781 248.68614197 99.66648865 C247.15262062 102.55104721 245.55878552 105.4008441 243.96250916 108.2509613 C242.65266655 110.60008887 241.36727435 112.9616513 240.08360291 115.32518005 C238.1584116 118.8689395 236.20892654 122.39771957 234.23594666 125.9150238 C233.56535217 127.11300598 233.56535217 127.11300598 232.88121033 128.33518982 C231.98936407 129.92693767 231.09507888 131.51732199 230.19810486 133.10618591 C228.13240847 136.79679501 226.20345167 140.3930185 224.77110291 144.38768005 C224.11110291 144.38768005 223.45110291 144.38768005 222.77110291 144.38768005 C222.77110291 145.70768005 222.77110291 147.02768005 222.77110291 148.38768005 C222.11110291 148.38768005 221.45110291 148.38768005 220.77110291 148.38768005 C220.51586853 149.22557068 220.26063416 150.0634613 219.99766541 150.92674255 C218.65341373 154.71975843 216.98096097 158.18992796 215.14610291 161.76268005 C214.65883728 162.72367615 214.65883728 162.72367615 214.16172791 163.7040863 C213.36852884 165.26715506 212.5703326 166.82768627 211.77110291 168.38768005 C211.11110291 168.38768005 210.45110291 168.38768005 209.77110291 168.38768005 C209.52618103 169.20494568 209.28125916 170.0222113 209.02891541 170.86424255 C207.54562678 175.01929329 205.65309342 178.84089294 203.64610291 182.76268005 C203.27356384 183.49873474 202.90102478 184.23478943 202.51719666 184.9931488 C201.6054907 186.79318364 200.68880358 188.59069407 199.77110291 190.38768005 C199.11110291 190.38768005 198.45110291 190.38768005 197.77110291 190.38768005 C197.66797791 191.10955505 197.56485291 191.83143005 197.45860291 192.57518005 C196.6935725 195.70484989 195.46832586 197.64959726 193.77110291 200.38768005 C192.42993689 202.67523338 191.09632255 204.9659648 189.77110291 207.26268005 C189.42821228 207.84920349 189.08532166 208.43572693 188.73204041 209.0400238 C186.42161572 213.05240255 184.52490181 217.10183398 182.77110291 221.38768005 C182.11110291 221.38768005 181.45110291 221.38768005 180.77110291 221.38768005 C179.28610291 225.84268005 179.28610291 225.84268005 177.77110291 230.38768005 C177.11110291 230.38768005 176.45110291 230.38768005 175.77110291 230.38768005 C175.67571228 231.09021912 175.58032166 231.79275818 175.48204041 232.5165863 C174.64188414 235.90952508 173.21455548 238.34429894 171.39610291 241.32518005 C168.99946944 245.27707566 166.81090066 249.24046694 164.77110291 253.38768005 C164.03162045 254.74761868 163.2821835 256.10220984 162.52110291 257.45018005 C160.43294488 261.17635425 158.40663428 264.93156071 156.39610291 268.70018005 C154.04330921 273.08796089 151.61240376 277.41150708 149.08360291 281.70018005 C146.44510375 286.18562862 144.03144126 290.70370893 141.77110291 295.38768005 C138.16577751 302.70639237 134.51718216 309.89150884 130.26329041 316.85643005 C129.72961853 317.73299255 129.19594666 318.60955505 128.64610291 319.51268005 C128.14852478 320.31963318 127.65094666 321.1265863 127.13829041 321.95799255 C125.77693421 324.37731698 124.74176577 326.79000134 123.77110291 329.38768005 C123.11110291 329.38768005 122.45110291 329.38768005 121.77110291 329.38768005 C121.68860291 330.06830505 121.60610291 330.74893005 121.52110291 331.45018005 C120.53580515 335.30926292 118.90813657 338.02023307 116.77110291 341.38768005 C116.11110291 341.71768005 115.45110291 342.04768005 114.77110291 342.38768005 C114.32906203 344.05383411 113.88782969 345.72020708 113.45079041 347.38768005 C112.48892807 350.21798761 110.90989963 352.45734612 109.26719666 354.9384613 C106.6667677 359.1955604 104.58560451 363.72685773 102.41954041 368.21580505 C101.03605677 370.87786361 99.60457703 373.03838173 97.77110291 375.38768005 C96.39730767 378.04052603 95.07558248 380.70122707 93.77110291 383.38768005 C92.68989532 385.55540829 91.60647882 387.72203588 90.52110291 389.88768005 C90.00032166 390.92924255 89.47954041 391.97080505 88.94297791 393.04393005 C88.55625916 393.81736755 88.16954041 394.59080505 87.77110291 395.38768005 C87.11110291 395.38768005 86.45110291 395.38768005 85.77110291 395.38768005 C85.50297791 396.25393005 85.23485291 397.12018005 84.95860291 398.01268005 C81.84975459 406.84835421 81.84975459 406.84835421 78.77110291 408.38768005 C78.0544822 410.70615879 77.38868263 413.04087709 76.77110291 415.38768005 C76.44110291 416.04768005 76.11110291 416.70768005 75.77110291 417.38768005 C75.11110291 417.38768005 74.45110291 417.38768005 73.77110291 417.38768005 C73.46172791 418.81080505 73.46172791 418.81080505 73.14610291 420.26268005 C71.9237195 424.62074264 69.63057175 428.16761132 67.20860291 431.95799255 C65.77951506 434.37346169 64.74380148 436.75952333 63.77110291 439.38768005 C63.11110291 439.38768005 62.45110291 439.38768005 61.77110291 439.38768005 C61.48235291 440.46018005 61.19360291 441.53268005 60.89610291 442.63768005 C60.04290181 445.48168369 59.2074526 447.82276988 57.77110291 450.38768005 C57.11110291 450.38768005 56.45110291 450.38768005 55.77110291 450.38768005 C55.50297791 451.46018005 55.23485291 452.53268005 54.95860291 453.63768005 C53.85618415 457.11900244 52.91274789 458.58867874 50.77110291 461.38768005 C49.95336549 462.91361114 49.17218618 464.45954755 48.42344666 466.02049255 C45.88819715 471.19721975 43.14146552 476.2299328 40.33360291 481.26268005 C36.29149011 488.55358743 32.38978314 495.87548312 28.77110291 503.38768005 C28.11110291 503.38768005 27.45110291 503.38768005 26.77110291 503.38768005 C26.68860291 503.90330505 26.60610291 504.41893005 26.52110291 504.95018005 C24.33199251 512.06478883 21.28980678 515.29644081 14.88829041 518.84861755 C9.82882515 521.34664927 4.6643316 523.58298781 -0.52577209 525.79393005 C-4.51614332 527.49670063 -8.38055836 529.38686662 -12.22889709 531.38768005 C-13.95631842 532.26612067 -15.68558527 533.14093881 -17.41639709 534.01268005 C-18.21432678 534.41744568 -19.01225647 534.8222113 -19.83436584 535.23924255 C-21.40407625 535.99208898 -22.99885654 536.69515977 -24.61561584 537.34080505 C-28.92686466 539.06788231 -33.0793973 541.14226711 -37.26795959 543.14549255 C-40.22889709 544.38768005 -40.22889709 544.38768005 -43.22889709 544.38768005 C-43.22889709 545.04768005 -43.22889709 545.70768005 -43.22889709 546.38768005 C-44.21889709 546.80018005 -45.20889709 547.21268005 -46.22889709 547.63768005 C-48.88950665 548.7733711 -51.47018311 550.0002979 -54.04139709 551.32518005 C-58.64717409 553.66391117 -63.4176121 555.51967707 -68.22889709 557.38768005 C-69.11190491 557.75635193 -69.99491272 558.1250238 -70.90467834 558.50486755 C-73.22889709 559.38768005 -73.22889709 559.38768005 -75.22889709 559.38768005 C-75.22889709 560.04768005 -75.22889709 560.70768005 -75.22889709 561.38768005 C-76.64428772 561.93295349 -76.64428772 561.93295349 -78.08827209 562.48924255 C-85.4108355 565.34425614 -92.49542639 568.40292483 -99.49452209 571.99705505 C-110.09406563 577.38768005 -110.09406563 577.38768005 -113.22889709 577.38768005 C-113.65709601 580.24018574 -113.65709601 580.24018574 -113.22889709 583.38768005 C-111.09558986 585.4463342 -111.09558986 585.4463342 -108.10389709 586.88768005 C-107.00819397 587.47420349 -105.91249084 588.06072693 -104.78358459 588.6650238 C-100.14627332 590.91233619 -95.44431963 592.9482159 -90.68202209 594.9150238 C-87.37096661 596.32709158 -84.182728 597.87379732 -80.97889709 599.51268005 C-77.44230757 601.31839904 -73.93393319 602.95994321 -70.22889709 604.38768005 C-66.699262 605.75291627 -63.34836302 607.28943891 -59.97889709 609.01268005 C-53.14010964 612.50331115 -46.14941083 615.64018983 -39.14588928 618.78465271 C-34.35464341 620.94165081 -29.61423671 623.15825632 -24.92762756 625.53416443 C-22.78411435 626.61115813 -20.60819673 627.600632 -18.41639709 628.57518005 C-13.06500997 630.99532985 -7.73517675 633.45933773 -2.41639709 635.95018005 C-1.60388489 636.32618347 -0.79137268 636.70218689 0.04576111 637.08958435 C7.14482325 640.42812548 12.82730025 643.25849833 16.77110291 650.38768005 C16.77110291 651.37768005 16.77110291 652.36768005 16.77110291 653.38768005 C17.43110291 653.38768005 18.09110291 653.38768005 18.77110291 653.38768005 C19.11141541 654.07990662 19.45172791 654.77213318 19.80235291 655.4853363 C22.11439588 660.15246561 24.43998336 664.80132756 26.91563416 669.3837738 C27.27528259 670.04949402 27.63493103 670.71521423 28.00547791 671.40110779 C28.71374305 672.70616972 29.42587015 674.00914455 30.14219666 675.30979919 C31.77965642 678.32644812 32.96451788 681.06550808 33.77110291 684.38768005 C34.43110291 684.71768005 35.09110291 685.04768005 35.77110291 685.38768005 C45.77110291 700.79118883 45.77110291 700.79118883 45.77110291 706.38768005 C46.43110291 706.71768005 47.09110291 707.04768005 47.77110291 707.38768005 C49.06016541 709.34861755 49.06016541 709.34861755 50.39610291 711.76268005 C50.84211853 712.55416443 51.28813416 713.3456488 51.74766541 714.16111755 C52.77110291 716.38768005 52.77110291 716.38768005 52.77110291 719.38768005 C53.43110291 719.38768005 54.09110291 719.38768005 54.77110291 719.38768005 C57.77110291 725.01268005 57.77110291 725.01268005 57.77110291 728.38768005 C58.43110291 728.71768005 59.09110291 729.04768005 59.77110291 729.38768005 C60.70871411 730.99866658 61.57501692 732.6517972 62.39610291 734.32518005 C62.84211853 735.22107849 63.28813416 736.11697693 63.74766541 737.0400238 C64.77110291 739.38768005 64.77110291 739.38768005 64.77110291 741.38768005 C65.43110291 741.38768005 66.09110291 741.38768005 66.77110291 741.38768005 C67.20422791 743.08924255 67.20422791 743.08924255 67.64610291 744.82518005 C68.01735291 746.00080505 68.38860291 747.17643005 68.77110291 748.38768005 C69.43110291 748.71768005 70.09110291 749.04768005 70.77110291 749.38768005 C71.89293826 751.27023226 72.94339768 753.19554831 73.95860291 755.13768005 C74.59002329 756.33434215 75.22153615 757.53095545 75.85313416 758.7275238 C76.17362732 759.33966736 76.49412048 759.95181091 76.82432556 760.58250427 C78.24822965 763.29739515 79.69591761 765.9992522 81.14610291 768.70018005 C81.71200134 769.75592224 82.27789978 770.81166443 82.86094666 771.8993988 C84.28650593 774.50272076 85.73445981 777.08397045 87.21250916 779.6572113 C87.62645935 780.38061707 88.04040955 781.10402283 88.46690369 781.84934998 C89.28124931 783.26813027 90.10106051 784.68379042 90.92686462 786.09593201 C93.77110291 791.05570407 93.77110291 791.05570407 93.77110291 794.38768005 C94.43110291 794.71768005 95.09110291 795.04768005 95.77110291 795.38768005 C97.78065971 798.32472461 98.77110291 799.7799049 98.77110291 803.38768005 C99.43110291 803.71768005 100.09110291 804.04768005 100.77110291 804.38768005 C102.06016541 806.34861755 102.06016541 806.34861755 103.39610291 808.76268005 C103.84211853 809.55416443 104.28813416 810.3456488 104.74766541 811.16111755 C105.77110291 813.38768005 105.77110291 813.38768005 105.77110291 816.38768005 C106.43110291 816.38768005 107.09110291 816.38768005 107.77110291 816.38768005 C108.34860291 817.56330505 108.92610291 818.73893005 109.52110291 819.95018005 C110.92164058 822.77126309 112.40432064 825.49784398 114.02110291 828.20018005 C115.77110291 831.38768005 115.77110291 831.38768005 115.77110291 834.38768005 C116.43110291 834.38768005 117.09110291 834.38768005 117.77110291 834.38768005 C117.99797791 835.02705505 118.22485291 835.66643005 118.45860291 836.32518005 C121.17339381 842.65969216 124.76054928 848.5328172 128.56016541 854.27049255 C129.90333042 856.61886494 130.90736595 859.05692166 131.94981384 861.54978943 C133.27651074 864.51868784 134.93493445 867.2753703 136.58360291 870.07518005 C146.77110291 887.60033108 146.77110291 887.60033108 146.77110291 891.38768005 C147.43110291 891.71768005 148.09110291 892.04768005 148.77110291 892.38768005 C149.84141541 894.1650238 149.84141541 894.1650238 150.89610291 896.32518005 C151.24930603 897.03545349 151.60250916 897.74572693 151.96641541 898.4775238 C152.77110291 900.38768005 152.77110291 900.38768005 152.77110291 902.38768005 C153.43110291 902.38768005 154.09110291 902.38768005 154.77110291 902.38768005 C156.08856624 904.96858773 157.40019908 907.55218463 158.70860291 910.13768005 C159.0817865 910.86728943 159.45497009 911.5968988 159.83946228 912.34861755 C160.37603455 913.41209412 160.37603455 913.41209412 160.92344666 914.49705505 C161.25336609 915.14642029 161.58328552 915.79578552 161.92320251 916.46482849 C162.78562406 918.42061085 163.3148447 920.303087 163.77110291 922.38768005 C164.43110291 922.38768005 165.09110291 922.38768005 165.77110291 922.38768005 C166.4422984 923.84393455 167.10792098 925.30275873 167.77110291 926.76268005 C168.14235291 927.57478943 168.51360291 928.3868988 168.89610291 929.22361755 C169.77110291 931.38768005 169.77110291 931.38768005 169.77110291 933.38768005 C170.43110291 933.71768005 171.09110291 934.04768005 171.77110291 934.38768005 C174.77110291 939.81075698 174.77110291 939.81075698 174.77110291 942.38768005 C175.43110291 942.71768005 176.09110291 943.04768005 176.77110291 943.38768005 C180.77110291 949.74062123 180.77110291 949.74062123 180.77110291 953.38768005 C181.43110291 953.71768005 182.09110291 954.04768005 182.77110291 954.38768005 C183.84141541 956.1650238 183.84141541 956.1650238 184.89610291 958.32518005 C185.24930603 959.03545349 185.60250916 959.74572693 185.96641541 960.4775238 C186.77110291 962.38768005 186.77110291 962.38768005 186.77110291 964.38768005 C187.43110291 964.71768005 188.09110291 965.04768005 188.77110291 965.38768005 C190.08547171 967.68190488 191.31911113 969.97312392 192.52110291 972.32518005 C194.905862 976.90428641 197.32287124 981.41990386 200.02110291 985.82518005 C202.13536151 989.27865906 204.01649378 992.76552296 205.78282166 996.4072113 C206.83956102 998.52486686 207.98111966 1000.57769381 209.14610291 1002.63768005 C217.77110291 1018.03370809 217.77110291 1018.03370809 217.77110291 1021.38768005 C218.43110291 1021.38768005 219.09110291 1021.38768005 219.77110291 1021.38768005 C220.44518599 1022.65459513 221.11010787 1023.92638754 221.77110291 1025.20018005 C222.14235291 1025.90787537 222.51360291 1026.61557068 222.89610291 1027.3447113 C223.77110291 1029.38768005 223.77110291 1029.38768005 223.77110291 1032.38768005 C224.43110291 1032.71768005 225.09110291 1033.04768005 225.77110291 1033.38768005 C229.81690274 1039.43729584 233.04460663 1045.32474073 234.77110291 1052.38768005 C235.43110291 1052.71768005 236.09110291 1053.04768005 236.77110291 1053.38768005 C238.06016541 1055.34861755 238.06016541 1055.34861755 239.39610291 1057.76268005 C240.06512634 1058.94990662 240.06512634 1058.94990662 240.74766541 1060.16111755 C241.77110291 1062.38768005 241.77110291 1062.38768005 241.77110291 1065.38768005 C242.43110291 1065.38768005 243.09110291 1065.38768005 243.77110291 1065.38768005 C244.97917796 1067.80383016 246.1868693 1070.22015737 247.39219666 1072.63768005 C248.2509289 1074.35027921 249.11686038 1076.05931119 249.99375916 1077.76268005 C252.77110291 1083.17800263 252.77110291 1083.17800263 252.77110291 1085.38768005 C253.43110291 1085.71768005 254.09110291 1086.04768005 254.77110291 1086.38768005 C257.77110291 1091.81075698 257.77110291 1091.81075698 257.77110291 1094.38768005 C258.43110291 1094.38768005 259.09110291 1094.38768005 259.77110291 1094.38768005 C260.14235291 1095.33643005 260.51360291 1096.28518005 260.89610291 1097.26268005 C262.2683072 1100.50607202 263.96726073 1103.40335785 265.83360291 1106.38768005 C268.30534744 1110.38519282 269.61689221 1113.86702149 270.77110291 1118.38768005 C271.43110291 1118.71768005 272.09110291 1119.04768005 272.77110291 1119.38768005 C274.78065971 1122.32472461 275.77110291 1123.7799049 275.77110291 1127.38768005 C276.43110291 1127.71768005 277.09110291 1128.04768005 277.77110291 1128.38768005 C278.76564684 1130.02094868 279.69288438 1131.69554988 280.58360291 1133.38768005 C281.11469666 1134.38541443 281.64579041 1135.3831488 282.19297791 1136.41111755 C282.71375916 1137.39338318 283.23454041 1138.3756488 283.77110291 1139.38768005 C284.62066704 1140.93188781 285.47443681 1142.47379395 286.33360291 1144.01268005 C286.73579041 1144.73713318 287.13797791 1145.4615863 287.55235291 1146.20799255 C288.37869845 1147.68587978 289.21228 1149.15973997 290.05235291 1150.62986755 C291.32217227 1152.86753704 292.55669867 1155.11948634 293.77110291 1157.38768005 C294.19133728 1158.16498474 294.61157166 1158.94228943 295.04454041 1159.7431488 C296.85427661 1163.36869416 297.81131848 1165.66379978 297.58360291 1169.76268005 C294.84283385 1173.73206973 291.37135166 1174.362128 286.77110291 1175.38768005 C282.67279557 1175.79085936 278.60748738 1175.78896562 274.49188232 1175.76190186 C273.2796944 1175.76587626 272.06750647 1175.76985067 270.81858557 1175.77394551 C267.47545084 1175.78187219 264.13283371 1175.77644149 260.78974164 1175.76519501 C257.17624293 1175.75631841 253.56277821 1175.76480637 249.94927979 1175.77105713 C242.87981962 1175.78052621 235.81046182 1175.77396237 228.74100927 1175.76179419 C220.50584866 1175.74814918 212.27071221 1175.74981418 204.03554317 1175.75192752 C189.3426391 1175.75511449 174.64978359 1175.7434653 159.95689392 1175.72386169 C145.70264712 1175.70484837 131.44845718 1175.69777723 117.19419861 1175.70335388 C101.66390858 1175.7094118 86.13364354 1175.70923517 70.60335559 1175.69786805 C68.94750162 1175.69666078 67.29164765 1175.69545479 65.63579369 1175.69425011 C64.41377747 1175.6933448 64.41377747 1175.6933448 63.16707406 1175.6924212 C57.42750951 1175.68854282 51.68795428 1175.68893533 45.94838905 1175.69083595 C38.9556495 1175.69295807 31.96295972 1175.68773224 24.97023419 1175.6732224 C21.40291182 1175.66597986 17.83566194 1175.66190023 14.26833344 1175.66646576 C10.40196442 1175.67129368 6.53572724 1175.66062559 2.66937256 1175.64837646 C1.54126799 1175.65215579 0.41316342 1175.65593511 -0.74912614 1175.65982896 C-5.97732752 1175.63043866 -10.34777563 1175.48910823 -15.22889709 1173.38768005 C-16.72163147 1172.84240662 -16.72163147 1172.84240662 -18.24452209 1172.28611755 C-22.43234515 1169.62213587 -24.4277516 1166.19627599 -26.97889709 1162.01268005 C-27.70012756 1160.87959412 -27.70012756 1160.87959412 -28.43592834 1159.72361755 C-30.74990989 1156.0367166 -32.74720151 1152.4984355 -34.22889709 1148.38768005 C-35.2162425 1146.71348567 -36.21701815 1145.04716153 -37.22889709 1143.38768005 C-40.22889709 1137.72101339 -40.22889709 1137.72101339 -40.22889709 1135.38768005 C-40.88889709 1135.05768005 -41.54889709 1134.72768005 -42.22889709 1134.38768005 C-43.48280334 1132.49705505 -43.48280334 1132.49705505 -44.79139709 1130.13768005 C-45.22581116 1129.3693988 -45.66022522 1128.60111755 -46.10780334 1127.80955505 C-47.22889709 1125.38768005 -47.22889709 1125.38768005 -47.75624084 1122.65330505 C-47.91221741 1121.9056488 -48.06819397 1121.15799255 -48.22889709 1120.38768005 C-48.88889709 1120.05768005 -49.54889709 1119.72768005 -50.22889709 1119.38768005 C-51.60638445 1116.98950674 -52.90497997 1114.59570755 -54.16639709 1112.13768005 C-54.86178881 1110.79850268 -55.55838116 1109.459948 -56.25624084 1108.12205505 C-56.59236389 1107.47720154 -56.92848694 1106.83234802 -57.27479553 1106.16795349 C-58.51239033 1103.85870547 -59.88056956 1101.63366126 -61.22889709 1099.38768005 C-62.2042478 1097.47961693 -63.16189253 1095.56242453 -64.10389709 1093.63768005 C-66.37353147 1089.04167043 -68.76660185 1084.55879075 -71.34608459 1080.12986755 C-72.22889709 1078.38768005 -72.22889709 1078.38768005 -72.22889709 1076.38768005 C-72.88889709 1076.05768005 -73.54889709 1075.72768005 -74.22889709 1075.38768005 C-76.33925432 1071.94076326 -78.18345407 1068.47989067 -79.97108459 1064.8525238 C-83.15575491 1058.4542855 -86.68496428 1052.23758718 -90.15858459 1045.9931488 C-90.68194397 1045.04310974 -91.20530334 1044.09307068 -91.74452209 1043.11424255 C-92.46043518 1041.82381042 -92.46043518 1041.82381042 -93.19081116 1040.50730896 C-94.22889709 1038.38768005 -94.22889709 1038.38768005 -94.22889709 1036.38768005 C-94.88889709 1036.05768005 -95.54889709 1035.72768005 -96.22889709 1035.38768005 C-97.24349181 1033.71214935 -98.19218804 1031.99634442 -99.10389709 1030.26268005 C-100.87260044 1026.92468599 -102.658367 1023.62559799 -104.60389709 1020.38768005 C-106.22889709 1017.38768005 -106.22889709 1017.38768005 -106.22889709 1014.38768005 C-106.88889709 1014.05768005 -107.54889709 1013.72768005 -108.22889709 1013.38768005 C-108.22889709 1012.39768005 -108.22889709 1011.40768005 -108.22889709 1010.38768005 C-108.88889709 1010.38768005 -109.54889709 1010.38768005 -110.22889709 1010.38768005 C-111.06420959 1008.68611755 -111.06420959 1008.68611755 -111.91639709 1006.95018005 C-113.42623845 1003.925181 -115.00721846 1000.95824719 -116.66639709 998.01268005 C-118.92791403 993.99065917 -120.99814974 989.89512093 -123.01795959 985.74705505 C-123.83719081 984.15087553 -124.71298116 982.58269104 -125.6375885 981.04515076 C-127.12425428 978.5624326 -128.52559321 976.05455744 -129.90077209 973.5087738 C-130.39681946 972.59353943 -130.89286682 971.67830505 -131.40394592 970.7353363 C-131.92367981 969.77498474 -132.4434137 968.81463318 -132.97889709 967.82518005 C-136.25098886 961.79436205 -139.5299507 955.78275066 -143.04139709 949.88768005 C-146.10511192 944.72228646 -148.74598773 939.39324373 -151.38514709 934.0009613 C-153.62398021 929.51961279 -156.15610933 925.20714102 -158.7403717 920.91746521 C-160.36924977 918.16052951 -161.22889709 916.65461773 -161.22889709 913.38768005 C-161.88889709 913.38768005 -162.54889709 913.38768005 -163.22889709 913.38768005 C-163.51893616 912.43055115 -163.51893616 912.43055115 -163.81483459 911.4540863 C-164.07522522 910.62779724 -164.33561584 909.80150818 -164.60389709 908.95018005 C-164.85913147 908.12646912 -165.11436584 907.30275818 -165.37733459 906.4540863 C-166.03771937 904.20969989 -166.03771937 904.20969989 -168.22889709 903.38768005 C-169.27870178 901.68870544 -169.27870178 901.68870544 -170.40077209 899.4853363 C-170.81488342 898.68225037 -171.22899475 897.87916443 -171.65565491 897.05174255 C-172.31065979 895.76396912 -172.31065979 895.76396912 -172.97889709 894.45018005 C-176.10198426 888.40549523 -179.27990284 882.46261643 -182.84608459 876.6650238 C-184.49019007 873.95735857 -186.05788355 871.21502754 -187.60389709 868.45018005 C-188.10663147 867.55428162 -188.60936584 866.65838318 -189.12733459 865.7353363 C-190.22889709 863.38768005 -190.22889709 863.38768005 -190.22889709 860.38768005 C-190.88889709 860.05768005 -191.54889709 859.72768005 -192.22889709 859.38768005 C-193.62649654 856.94770435 -194.94669331 854.5120483 -196.22889709 852.01268005 C-196.93585771 850.64998785 -197.64414524 849.28798304 -198.35389709 847.92674255 C-198.82182678 847.01722839 -198.82182678 847.01722839 -199.29920959 846.08934021 C-200.18455524 844.46884149 -201.20459951 842.92412643 -202.22889709 841.38768005 C-202.22889709 840.39768005 -202.22889709 839.40768005 -202.22889709 838.38768005 C-202.88889709 838.05768005 -203.54889709 837.72768005 -204.22889709 837.38768005 C-205.1665083 835.77669353 -206.03281111 834.1235629 -206.85389709 832.45018005 C-207.52292053 831.1063324 -207.52292053 831.1063324 -208.20545959 829.7353363 C-209.22889709 827.38768005 -209.22889709 827.38768005 -209.22889709 825.38768005 C-209.88889709 825.38768005 -210.54889709 825.38768005 -211.22889709 825.38768005 C-211.51893616 824.43055115 -211.51893616 824.43055115 -211.81483459 823.4540863 C-212.07522522 822.62779724 -212.33561584 821.80150818 -212.60389709 820.95018005 C-212.85913147 820.12646912 -213.11436584 819.30275818 -213.37733459 818.4540863 C-214.03771937 816.20969989 -214.03771937 816.20969989 -216.22889709 815.38768005 C-217.29920959 813.6103363 -217.29920959 813.6103363 -218.35389709 811.45018005 C-218.70710022 810.73990662 -219.06030334 810.02963318 -219.42420959 809.2978363 C-220.22889709 807.38768005 -220.22889709 807.38768005 -220.22889709 805.38768005 C-220.88889709 805.38768005 -221.54889709 805.38768005 -222.22889709 805.38768005 C-222.67620178 804.48146912 -223.12350647 803.57525818 -223.58436584 802.6415863 C-229.45274167 790.50701446 -229.45274167 790.50701446 -236.54139709 779.07518005 C-238.22889709 776.38768005 -238.22889709 776.38768005 -238.22889709 772.38768005 C-238.88889709 772.05768005 -239.54889709 771.72768005 -240.22889709 771.38768005 C-241.24349181 769.71214935 -242.19218804 767.99634442 -243.10389709 766.26268005 C-244.87260044 762.92468599 -246.658367 759.62559799 -248.60389709 756.38768005 C-250.22889709 753.38768005 -250.22889709 753.38768005 -250.22889709 750.38768005 C-250.88889709 750.38768005 -251.54889709 750.38768005 -252.22889709 750.38768005 C-252.63881897 749.55623474 -253.04874084 748.72478943 -253.47108459 747.8681488 C-254.00991272 746.78146912 -254.54874084 745.69478943 -255.10389709 744.57518005 C-255.63756897 743.49623474 -256.17124084 742.41728943 -256.72108459 741.3056488 C-258.20110848 738.30929741 -258.20110848 738.30929741 -260.22889709 735.38768005 C-260.22889709 734.39768005 -260.22889709 733.40768005 -260.22889709 732.38768005 C-260.88889709 732.05768005 -261.54889709 731.72768005 -262.22889709 731.38768005 C-263.1665083 729.77669353 -264.03281111 728.1235629 -264.85389709 726.45018005 C-265.52292053 725.1063324 -265.52292053 725.1063324 -266.20545959 723.7353363 C-267.22889709 721.38768005 -267.22889709 721.38768005 -267.22889709 719.38768005 C-267.88889709 719.05768005 -268.54889709 718.72768005 -269.22889709 718.38768005 C-270.22344102 716.75441143 -271.15067857 715.07981023 -272.04139709 713.38768005 C-274.3894675 708.95692313 -276.81557111 704.59160878 -279.34608459 700.26268005 C-280.22889709 698.38768005 -280.22889709 698.38768005 -280.22889709 695.38768005 C-280.88889709 695.38768005 -281.54889709 695.38768005 -282.22889709 695.38768005 C-282.62077209 694.58330505 -283.01264709 693.77893005 -283.41639709 692.95018005 C-285.23895415 689.36791274 -287.21046085 685.90589417 -289.24061584 682.4384613 C-290.22889709 680.38768005 -290.22889709 680.38768005 -290.22889709 677.38768005 C-290.88889709 677.05768005 -291.54889709 676.72768005 -292.22889709 676.38768005 C-293.33421816 674.44334585 -294.36610638 672.45677908 -295.35389709 670.45018005 C-295.89272522 669.36865662 -296.43155334 668.28713318 -296.98670959 667.1728363 C-298.22889709 664.38768005 -298.22889709 664.38768005 -298.22889709 662.38768005 C-298.88889709 662.38768005 -299.54889709 662.38768005 -300.22889709 662.38768005 C-300.51893616 661.43055115 -300.51893616 661.43055115 -300.81483459 660.4540863 C-301.07522522 659.62779724 -301.33561584 658.80150818 -301.60389709 657.95018005 C-301.85913147 657.12646912 -302.11436584 656.30275818 -302.37733459 655.4540863 C-303.03771937 653.20969989 -303.03771937 653.20969989 -305.22889709 652.38768005 C-307.2384539 649.4506355 -308.22889709 647.9954552 -308.22889709 644.38768005 C-308.88889709 644.38768005 -309.54889709 644.38768005 -310.22889709 644.38768005 C-311.23329219 641.97713182 -312.16148698 639.69102558 -312.72889709 637.13768005 C-312.89389709 636.56018005 -313.05889709 635.98268005 -313.22889709 635.38768005 C-313.88889709 635.05768005 -314.54889709 634.72768005 -315.22889709 634.38768005 C-316.40195779 632.23657632 -317.48861272 630.09655809 -318.54139709 627.88768005 C-320.99453501 622.8410041 -323.54754671 617.90690322 -326.38124084 613.05955505 C-327.22889709 611.38768005 -327.22889709 611.38768005 -327.22889709 609.38768005 C-327.88889709 609.38768005 -328.54889709 609.38768005 -329.22889709 609.38768005 C-338.76940338 590.20931538 -338.76940338 590.20931538 -335.59217834 579.17674255 C-334.61913033 576.80796503 -333.466052 574.63110023 -332.22889709 572.38768005 C-331.60314563 571.19735109 -330.97963235 570.00584406 -330.35780334 568.8134613 C-327.43934424 563.24993013 -324.43834068 557.73596571 -321.35389709 552.26268005 C-319.73276368 549.37520672 -318.33958987 546.51781423 -317.22889709 543.38768005 C-316.56889709 543.38768005 -315.90889709 543.38768005 -315.22889709 543.38768005 C-314.56889709 541.07768005 -313.90889709 538.76768005 -313.22889709 536.38768005 C-312.56889709 536.38768005 -311.90889709 536.38768005 -311.22889709 536.38768005 C-311.14639709 535.70705505 -311.06389709 535.02643005 -310.97889709 534.32518005 C-309.99359934 530.46609718 -308.36593076 527.75512704 -306.22889709 524.38768005 C-305.56889709 524.05768005 -304.90889709 523.72768005 -304.22889709 523.38768005 C-304.08452209 522.64518005 -303.94014709 521.90268005 -303.79139709 521.13768005 C-303.14048668 517.95545136 -301.94846562 516.15127232 -300.22889709 513.38768005 C-298.52133055 510.07449123 -296.87235784 506.73306458 -295.22889709 503.38768005 C-294.56889709 503.38768005 -293.90889709 503.38768005 -293.22889709 503.38768005 C-293.03553772 502.7843988 -292.84217834 502.18111755 -292.64295959 501.55955505 C-292.38256897 500.7603363 -292.12217834 499.96111755 -291.85389709 499.13768005 C-291.59866272 498.3487738 -291.34342834 497.55986755 -291.08045959 496.74705505 C-290.27716043 494.52140048 -289.33178047 492.47836333 -288.22889709 490.38768005 C-287.56889709 490.38768005 -286.90889709 490.38768005 -286.22889709 490.38768005 C-286.12319397 489.66451599 -286.01749084 488.94135193 -285.90858459 488.1962738 C-285.16794342 485.13580827 -284.03695939 483.10037516 -282.35389709 480.45018005 C-280.10710886 476.829763 -278.10426523 473.21655666 -276.22889709 469.38768005 C-275.2189753 467.4444701 -274.19710424 465.50744549 -273.16639709 463.57518005 C-272.40649475 462.14238708 -272.40649475 462.14238708 -271.63124084 460.6806488 C-270.22889709 458.38768005 -270.22889709 458.38768005 -268.22889709 457.38768005 C-267.50843946 455.40642155 -266.8488845 453.40263913 -266.22889709 451.38768005 C-265.57478025 449.71604811 -264.91236391 448.04752804 -264.22889709 446.38768005 C-263.56889709 446.38768005 -262.90889709 446.38768005 -262.22889709 446.38768005 C-261.85764709 444.84080505 -261.85764709 444.84080505 -261.47889709 443.26268005 C-260.59209715 440.16503858 -259.33172132 437.88199639 -257.43592834 435.25486755 C-255.19086091 431.78191535 -253.4966812 428.00589822 -251.69374084 424.2900238 C-247.86616082 416.70631192 -247.86616082 416.70631192 -245.22889709 415.38768005 C-244.32164275 413.27440581 -244.32164275 413.27440581 -243.60389709 410.82518005 C-243.21331116 409.58574646 -243.21331116 409.58574646 -242.81483459 408.3212738 C-242.62147522 407.68318787 -242.42811584 407.04510193 -242.22889709 406.38768005 C-241.56889709 406.38768005 -240.90889709 406.38768005 -240.22889709 406.38768005 C-240.09982971 405.79906189 -239.97076233 405.21044373 -239.83778381 404.60398865 C-238.88865915 401.14923575 -237.06923724 398.13595171 -235.35389709 395.01268005 C-234.64742716 393.71360346 -233.94168833 392.41412899 -233.23670959 391.11424255 C-232.89454407 390.48421326 -232.55237854 389.85418396 -232.19984436 389.20506287 C-230.82205804 386.62617391 -229.53064091 384.00559144 -228.22889709 381.38768005 C-225.01515504 375.32043841 -221.64642469 369.341971 -218.22889709 363.38768005 C-214.81080039 357.43219851 -211.48588007 351.43270867 -208.22889709 345.38768005 C-207.67460022 344.36029724 -207.12030334 343.33291443 -206.54920959 342.2743988 C-205.96913147 341.19803162 -205.38905334 340.12166443 -204.79139709 339.01268005 C-204.21131897 337.93760193 -203.63124084 336.8625238 -203.03358459 335.75486755 C-201.77741252 333.41110061 -200.53234981 331.06374985 -199.29920959 328.70799255 C-198.98395325 328.11035095 -198.6686969 327.51270935 -198.34388733 326.8969574 C-197.46190175 325.22399396 -196.58548051 323.5481005 -195.70936584 321.87205505 C-194.22889709 319.38768005 -194.22889709 319.38768005 -192.22889709 318.38768005 C-191.86415586 317.06259412 -191.53499237 315.72752877 -191.22889709 314.38768005 C-190.36854553 312.6235199 -190.36854553 312.6235199 -189.33827209 310.84861755 C-188.77257507 309.86224304 -188.77257507 309.86224304 -188.19544983 308.85594177 C-187.79398743 308.16516541 -187.39252502 307.47438904 -186.97889709 306.76268005 C-184.42963828 302.31159324 -181.90592722 297.88026794 -179.66639709 293.26268005 C-177.09539468 287.98769234 -174.14852754 282.93783279 -171.22108459 277.85643005 C-167.19039028 270.85595425 -163.23290879 263.8977093 -160.22889709 256.38768005 C-159.56889709 256.38768005 -158.90889709 256.38768005 -158.22889709 256.38768005 C-158.22889709 255.06768005 -158.22889709 253.74768005 -158.22889709 252.38768005 C-157.56889709 252.38768005 -156.90889709 252.38768005 -156.22889709 252.38768005 C-155.98397522 251.57041443 -155.73905334 250.7531488 -155.48670959 249.91111755 C-154.00342097 245.75606682 -152.11088761 241.93446716 -150.10389709 238.01268005 C-149.73135803 237.27662537 -149.35881897 236.54057068 -148.97499084 235.7822113 C-148.06328489 233.98217647 -147.14659777 232.18466603 -146.22889709 230.38768005 C-145.56889709 230.38768005 -144.90889709 230.38768005 -144.22889709 230.38768005 C-143.86538147 229.13857849 -143.86538147 229.13857849 -143.49452209 227.86424255 C-142.0405072 223.87018928 -140.11623764 220.42157719 -137.97889709 216.76268005 C-135.32010541 212.13203455 -132.7362169 207.51294055 -130.41639709 202.70018005 C-127.08463629 195.87665863 -123.25750865 189.33982733 -119.45423889 182.77171326 C-116.90770802 178.36698057 -114.4432588 173.97179728 -112.22889709 169.38768005 C-110.22889709 165.38768005 -108.22889709 161.38768005 -106.22889709 157.38768005 C-105.56889709 157.38768005 -104.90889709 157.38768005 -104.22889709 157.38768005 C-104.12835022 156.67482849 -104.02780334 155.96197693 -103.92420959 155.2275238 C-103.13249763 151.99395866 -101.85361161 149.77875442 -100.10389709 146.95018005 C-96.66478037 141.23954796 -93.69810295 135.41724735 -90.80702209 129.41893005 C-89.22889709 126.38768005 -89.22889709 126.38768005 -87.77577209 124.48143005 C-85.92220733 121.97256461 -84.66680585 119.34017273 -83.30409241 116.54148865 C-81.18837454 112.3033272 -78.77130725 108.22788756 -76.40858459 104.12400818 C-74.40926687 100.61507048 -72.60590271 97.20035689 -71.22889709 93.38768005 C-70.56889709 93.38768005 -69.90889709 93.38768005 -69.22889709 93.38768005 C-69.03553772 92.7843988 -68.84217834 92.18111755 -68.64295959 91.55955505 C-68.38256897 90.7603363 -68.12217834 89.96111755 -67.85389709 89.13768005 C-67.59866272 88.3487738 -67.34342834 87.55986755 -67.08045959 86.74705505 C-66.27716043 84.52140048 -65.33178047 82.47836333 -64.22889709 80.38768005 C-63.56889709 80.38768005 -62.90889709 80.38768005 -62.22889709 80.38768005 C-62.12577209 79.85143005 -62.02264709 79.31518005 -61.91639709 78.76268005 C-61.04070178 75.73755077 -59.75642548 73.13723115 -58.22889709 70.38768005 C-57.56889709 70.05768005 -56.90889709 69.72768005 -56.22889709 69.38768005 C-56.08194397 68.64389099 -55.93499084 67.90010193 -55.78358459 67.1337738 C-55.15841264 64.03873238 -54.04073597 62.10632187 -52.35389709 59.45018005 C-50.10710886 55.829763 -48.10426523 52.21655666 -46.22889709 48.38768005 C-45.2189753 46.4444701 -44.19710424 44.50744549 -43.16639709 42.57518005 C-42.40649475 41.14238708 -42.40649475 41.14238708 -41.63124084 39.6806488 C-40.22889709 37.38768005 -40.22889709 37.38768005 -38.22889709 36.38768005 C-37.85695664 35.06459684 -37.52906647 33.72886879 -37.22889709 32.38768005 C-36.6729128 31.1210404 -36.07844614 29.8707656 -35.45155334 28.63768005 C-35.10286194 27.94674255 -34.75417053 27.25580505 -34.39491272 26.54393005 C-34.03075256 25.83236755 -33.66659241 25.12080505 -33.29139709 24.38768005 C-32.75095764 23.3203363 -32.75095764 23.3203363 -32.19960022 22.23143005 C-31.52639216 20.90237105 -30.85153657 19.57414426 -30.17445374 18.24705505 C-29.18350055 16.29841074 -28.20461734 14.34398968 -27.22889709 12.38768005 C-26.56889709 12.38768005 -25.90889709 12.38768005 -25.22889709 12.38768005 C-24.88858459 11.27393005 -24.88858459 11.27393005 -24.54139709 10.13768005 C-19.85341756 0.31524675 -9.49953117 -0.04913472 0 0 Z " transform="translate(339.22889709472656,168.61231994628906)"/>
<path fill="#000000" d="M0 0 C0.93706787 -0.0213501 1.87413574 -0.0427002 2.83959961 -0.06469727 C10.47272047 -0.10356604 18.22070875 1.44195996 24.375 6.25 C25.1875 8.4375 25.1875 8.4375 25.375 10.25 C26.035 10.25 26.695 10.25 27.375 10.25 C28.179375 11.9515625 28.179375 11.9515625 29 13.6875 C31.01502517 17.76088421 33.44811295 21.39428553 36.10546875 25.07421875 C37.50423592 27.47149049 37.84590369 29.54930838 38.375 32.25 C39.035 32.58 39.695 32.91 40.375 33.25 C44.13764771 38.58723398 46.98674177 43.86401214 48.375 50.25 C49.035 50.25 49.695 50.25 50.375 50.25 C50.82230469 51.08402344 51.26960938 51.91804688 51.73046875 52.77734375 C57.76990972 64.46434037 57.76990972 64.46434037 64.6875 75.625 C66.375 78.25 66.375 78.25 66.375 81.25 C67.035 81.58 67.695 81.91 68.375 82.25 C70.3845568 85.18704456 71.375 86.64222485 71.375 90.25 C72.035 90.25 72.695 90.25 73.375 90.25 C76.375 95.875 76.375 95.875 76.375 99.25 C77.035 99.25 77.695 99.25 78.375 99.25 C78.49875 100.054375 78.6225 100.85875 78.75 101.6875 C78.95625 102.533125 79.1625 103.37875 79.375 104.25 C80.035 104.58 80.695 104.91 81.375 105.25 C81.70833333 106.58333333 82.04166667 107.91666667 82.375 109.25 C83.035 109.58 83.695 109.91 84.375 110.25 C84.375 111.24 84.375 112.23 84.375 113.25 C85.035 113.25 85.695 113.25 86.375 113.25 C86.82875 114.178125 87.2825 115.10625 87.75 116.0625 C89.3171633 119.28921389 89.3171633 119.28921389 91.375 122.25 C91.375 123.24 91.375 124.23 91.375 125.25 C92.035 125.58 92.695 125.91 93.375 126.25 C94.6640625 127.9921875 94.6640625 127.9921875 96 130.125 C96.44601562 130.82367188 96.89203125 131.52234375 97.3515625 132.2421875 C98.375 134.25 98.375 134.25 98.375 137.25 C99.035 137.58 99.695 137.91 100.375 138.25 C101.73370033 140.41745053 103.00890702 142.57922086 104.25 144.8125 C104.60642578 145.44639648 104.96285156 146.08029297 105.33007812 146.73339844 C112.375 159.3356947 112.375 159.3356947 112.375 162.25 C113.035 162.25 113.695 162.25 114.375 162.25 C115.035 164.56 115.695 166.87 116.375 169.25 C117.035 169.25 117.695 169.25 118.375 169.25 C118.705 170.9 119.035 172.55 119.375 174.25 C120.035 174.25 120.695 174.25 121.375 174.25 C122.8356285 176.89738916 123.375 178.14448334 123.375 181.25 C124.035 181.58 124.695 181.91 125.375 182.25 C126.6640625 183.9921875 126.6640625 183.9921875 128 186.125 C128.44601562 186.82367188 128.89203125 187.52234375 129.3515625 188.2421875 C130.375 190.25 130.375 190.25 130.375 193.25 C131.035 193.58 131.695 193.91 132.375 194.25 C133.4453125 196.02734375 133.4453125 196.02734375 134.5 198.1875 C135.02980469 199.25291016 135.02980469 199.25291016 135.5703125 200.33984375 C136.375 202.25 136.375 202.25 136.375 204.25 C137.035 204.25 137.695 204.25 138.375 204.25 C139.8356285 206.89738916 140.375 208.14448334 140.375 211.25 C141.035 211.25 141.695 211.25 142.375 211.25 C142.74625 212.03375 143.1175 212.8175 143.5 213.625 C144.92688088 216.48546073 146.52773668 219.20607848 148.1875 221.9375 C150.90089763 226.41057629 153.43824856 230.95637067 155.91796875 235.5625 C157.72488775 238.89536936 159.60233625 242.18621682 161.4921875 245.47265625 C162.375 247.25 162.375 247.25 162.375 249.25 C163.035 249.58 163.695 249.91 164.375 250.25 C165.453125 251.9296875 165.453125 251.9296875 166.625 254.125 C167.06714844 254.94226563 167.50929688 255.75953125 167.96484375 256.6015625 C168.43019531 257.47554688 168.89554688 258.34953125 169.375 259.25 C173.25831343 266.53258778 177.37994282 273.55732664 181.8359375 280.5 C183.375 283.25 183.375 283.25 183.375 286.25 C184.035 286.25 184.695 286.25 185.375 286.25 C185.68953125 286.89066406 186.0040625 287.53132813 186.328125 288.19140625 C188.34890565 292.27557436 190.37166711 296.32387471 192.6875 300.25 C194.375 303.25 194.375 303.25 194.375 305.25 C195.035 305.58 195.695 305.91 196.375 306.25 C198.3845568 309.18704456 199.375 310.64222485 199.375 314.25 C200.035 314.25 200.695 314.25 201.375 314.25 C201.63192627 314.73879639 201.88885254 315.22759277 202.15356445 315.73120117 C203.33006057 317.96741762 204.50876116 320.20246497 205.6875 322.4375 C206.09162109 323.20642578 206.49574219 323.97535156 206.91210938 324.76757812 C208.9688685 328.66371532 211.07861452 332.48857872 213.375 336.25 C215.17740518 339.32710431 216.96305526 342.41389814 218.75 345.5 C219.45382812 346.71236328 219.45382812 346.71236328 220.171875 347.94921875 C223.74594695 354.11992308 227.22638283 360.33829971 230.65942383 366.58837891 C232.79966481 370.48458724 235.00676631 374.32414213 237.3125 378.125 C239.44132513 381.63674479 241.4401716 385.19038 243.375 388.8125 C245.26164225 392.31908638 247.25246129 395.65089816 249.5 398.9375 C252.90699301 403.93204473 255.61685039 408.93343174 257.5 414.6875 C258.09177773 417.40085833 258.09177773 417.40085833 260.375 418.25 C262.375 421.25 262.375 421.25 262.375 424.25 C263.035 424.58 263.695 424.91 264.375 425.25 C265.40761823 426.99020621 266.37819678 428.76759177 267.3125 430.5625 C269.12312439 434.03093394 270.96975443 437.16530653 273.375 440.25 C274.9370262 442.96299287 275.375 444.04603997 275.375 447.25 C276.035 447.25 276.695 447.25 277.375 447.25 C277.64650879 447.77843506 277.91801758 448.30687012 278.19775391 448.85131836 C284.57329658 461.5663771 284.57329658 461.5663771 292.31640625 473.4609375 C293.375 475.25 293.375 475.25 293.90234375 477.9140625 C294.13630859 479.07035156 294.13630859 479.07035156 294.375 480.25 C295.035 480.58 295.695 480.91 296.375 481.25 C297.04166667 483.25 297.70833333 485.25 298.375 487.25 C299.035 487.58 299.695 487.91 300.375 488.25 C300.70833333 489.58333333 301.04166667 490.91666667 301.375 492.25 C302.035 492.58 302.695 492.91 303.375 493.25 C304.36954393 494.88326862 305.29678148 496.55786982 306.1875 498.25 C308.55029987 502.7027457 310.97941662 507.10296349 313.4921875 511.47265625 C314.375 513.25 314.375 513.25 314.375 515.25 C315.035 515.25 315.695 515.25 316.375 515.25 C316.931875 516.405 317.48875 517.56 318.0625 518.75 C319.56430199 521.78042188 321.20941194 524.60938596 323.0625 527.4375 C324.96841096 530.38933771 325.84403162 532.74560869 326.375 536.25 C327.035 536.58 327.695 536.91 328.375 537.25 C331.06443355 541.53628471 332.77336696 545.44510087 334.375 550.25 C335.035 550.58 335.695 550.91 336.375 551.25 C337.04166667 553.25 337.70833333 555.25 338.375 557.25 C339.035 557.58 339.695 557.91 340.375 558.25 C346.59770872 567.1420601 350.46281734 575.27963872 349.375 586.25 C348.5 589.5625 348.5 589.5625 347.375 592.25 C347.00375 593.19875 346.6325 594.1475 346.25 595.125 C345.96125 595.82625 345.6725 596.5275 345.375 597.25 C344.715 597.25 344.055 597.25 343.375 597.25 C342.715 599.89 342.055 602.53 341.375 605.25 C340.715 605.25 340.055 605.25 339.375 605.25 C339.27703125 605.94738281 339.1790625 606.64476562 339.078125 607.36328125 C338.24676011 610.77649599 336.84152493 613.37387616 335.125 616.4375 C332.99066266 620.30355121 330.8832037 624.1605457 328.9375 628.125 C326.43506268 633.20519884 323.75516387 638.18556307 321.05297852 643.16162109 C319.61023042 645.83705933 318.33851545 648.35945364 317.375 651.25 C316.715 651.25 316.055 651.25 315.375 651.25 C315.22804688 651.78367187 315.08109375 652.31734375 314.9296875 652.8671875 C313.24230572 658.47239824 310.85818349 663.07821654 307.6796875 667.98828125 C306.45054337 670.11904308 305.82570624 671.84806554 305.375 674.25 C304.715 674.25 304.055 674.25 303.375 674.25 C303.27960937 674.9409375 303.18421875 675.631875 303.0859375 676.34375 C302.22667306 679.85634749 300.75073504 682.58833504 299 685.75 C298.09121094 687.40515625 298.09121094 687.40515625 297.1640625 689.09375 C296.03619393 691.08352687 294.88194488 693.05879344 293.69140625 695.01171875 C292.44405345 697.13258865 291.82018111 698.84602199 291.375 701.25 C290.715 701.25 290.055 701.25 289.375 701.25 C289.045 703.23 288.715 705.21 288.375 707.25 C287.715 707.25 287.055 707.25 286.375 707.25 C286.148125 708.03375 285.92125 708.8175 285.6875 709.625 C281.05921053 722.40789474 281.05921053 722.40789474 277.375 724.25 C276.67972165 726.24023427 276.01821004 728.24233337 275.375 730.25 C274.40989741 732.2877302 273.40911188 734.30890823 272.375 736.3125 C270.52333416 739.90936089 268.81794228 743.46921373 267.375 747.25 C266.715 747.25 266.055 747.25 265.375 747.25 C265.20484375 747.81847656 265.0346875 748.38695312 264.859375 748.97265625 C263.47382517 753.38725385 261.94433857 757.33600022 259.5390625 761.3203125 C254.89550153 769.01802767 250.97295386 777.01928255 247.375 785.25 C246.715 785.25 246.055 785.25 245.375 785.25 C245.13265625 786.23484375 244.8903125 787.2196875 244.640625 788.234375 C243.37657066 792.64747698 241.32482205 796.4897654 239.125 800.5 C238.52002686 801.62305542 238.52002686 801.62305542 237.90283203 802.76879883 C235.70719946 806.83707372 233.47718374 810.88643337 231.25 814.9375 C227.76912478 821.28042817 224.58368887 827.76669029 221.375 834.25 C218.55947673 839.92721468 215.68733284 845.57229872 212.75 851.1875 C212.35554688 851.95384766 211.96109375 852.72019531 211.5546875 853.50976562 C211.173125 854.23744141 210.7915625 854.96511719 210.3984375 855.71484375 C209.88676025 856.69892212 209.88676025 856.69892212 209.36474609 857.70288086 C208.375 859.25 208.375 859.25 206.375 860.25 C205.72539493 862.33557419 205.07630341 864.42130961 204.4296875 866.5078125 C202.79477713 870.75857946 200.39689632 874.49869559 197.99609375 878.35546875 C196.36226935 881.27273111 195.35426157 884.06181049 194.375 887.25 C193.73684656 888.59721283 193.08174629 889.93747118 192.375 891.25 C191.715 891.25 191.055 891.25 190.375 891.25 C190.1275 892.075 189.88 892.9 189.625 893.75 C188.18547547 897.78066869 186.33520745 901.45514999 184.375 905.25 C183.92640625 906.15363281 183.4778125 907.05726563 183.015625 907.98828125 C181.08201908 911.83247397 179.07894825 915.63628598 177.0625 919.4375 C176.46429443 920.567323 176.46429443 920.567323 175.85400391 921.7199707 C173.68416576 925.8104266 171.48798258 929.8837957 169.25 933.9375 C165.77230261 940.2814315 162.5823267 946.76654797 159.375 953.25 C157.96113117 956.10556451 156.54384085 958.95940326 155.125 961.8125 C154.79580566 962.47918701 154.46661133 963.14587402 154.12744141 963.83276367 C152.350268 967.40572677 150.43473149 970.83471873 148.375 974.25 C147.78383159 975.50775336 147.21664958 976.77742244 146.6875 978.0625 C146.254375 979.114375 145.82125 980.16625 145.375 981.25 C144.715 981.25 144.055 981.25 143.375 981.25 C143.1275 982.054375 142.88 982.85875 142.625 983.6875 C141.11421353 987.99324143 139.27311144 992.10364007 137.375 996.25 C136.715 996.25 136.055 996.25 135.375 996.25 C134.24619943 999.56114834 133.16197325 1002.83978257 132.375 1006.25 C131.715 1006.25 131.055 1006.25 130.375 1006.25 C130.2925 1006.91773438 130.21 1007.58546875 130.125 1008.2734375 C129.13940092 1012.18503384 127.33297328 1015.36981706 125.375 1018.875 C122.55216709 1023.9124656 122.55216709 1023.9124656 120.375 1029.25 C119.715 1029.25 119.055 1029.25 118.375 1029.25 C118.1275 1030.054375 117.88 1030.85875 117.625 1031.6875 C116.11421353 1035.99324143 114.27311144 1040.10364007 112.375 1044.25 C111.715 1044.25 111.055 1044.25 110.375 1044.25 C110.065625 1045.343125 109.75625 1046.43625 109.4375 1047.5625 C108.79162103 1049.80407994 108.1126883 1052.0369351 107.375 1054.25 C106.715 1054.25 106.055 1054.25 105.375 1054.25 C105.1275 1055.260625 104.88 1056.27125 104.625 1057.3125 C103.65514427 1060.72419109 102.22108924 1063.52205378 100.38671875 1066.54296875 C99.41368793 1068.18472345 98.57791156 1069.90549137 97.75 1071.625 C96.375 1074.25 96.375 1074.25 94.375 1075.25 C93.71727572 1078.27934491 93.71727572 1078.27934491 93.375 1081.25 C92.715 1081.25 92.055 1081.25 91.375 1081.25 C91.271875 1081.971875 91.16875 1082.69375 91.0625 1083.4375 C90.30717477 1086.52746686 89.18362024 1088.64558686 87.375 1091.25 C86.715 1091.58 86.055 1091.91 85.375 1092.25 C84.93762944 1094.16770168 84.50069679 1096.08550471 84.06640625 1098.00390625 C83.10502875 1101.12702524 81.46615556 1103.54871613 79.66796875 1106.25390625 C75.83918052 1112.16481497 73.17722561 1118.81084327 70.375 1125.25 C69.715 1125.25 69.055 1125.25 68.375 1125.25 C68.375 1126.57 68.375 1127.89 68.375 1129.25 C67.715 1129.25 67.055 1129.25 66.375 1129.25 C66.271875 1129.971875 66.16875 1130.69375 66.0625 1131.4375 C65.30342387 1134.54281145 64.08180864 1136.55849407 62.375 1139.25 C61.04549921 1141.8511972 59.75676073 1144.4699521 58.47265625 1147.09375 C56.26119539 1151.56995993 53.90383171 1155.93486093 51.42578125 1160.26953125 C50.24614152 1162.36108811 50.24614152 1162.36108811 49.375 1165.25 C47.44140625 1167.22265625 47.44140625 1167.22265625 44.9375 1169.3125 C44.13441406 1170.00472656 43.33132813 1170.69695312 42.50390625 1171.41015625 C35.01767278 1175.81217368 26.50880331 1175.4873406 18.0625 1175.3125 C8.62841364 1175.21037954 -0.76053514 1175.373097 -10.1875 1175.75 C-20.18597383 1176.14359367 -30.15425849 1176.34926053 -40.16040039 1176.21289062 C-45.54999551 1176.16166903 -50.86428491 1176.37434377 -56.2421875 1176.75 C-64.05067256 1177.29030892 -71.81279574 1177.33398215 -79.63677979 1177.26803589 C-92.51686452 1177.16706587 -105.37652034 1177.26968904 -118.25 1177.6875 C-132.1162981 1178.13426057 -145.98231752 1178.47264121 -159.85321045 1178.74563599 C-162.08503636 1178.7895683 -164.31684856 1178.83420414 -166.54864502 1178.87960815 C-186.49287604 1179.28415071 -186.49287604 1179.28415071 -196.1015625 1179.24609375 C-207.19549565 1179.20276271 -218.28454448 1179.50146971 -229.375 1179.75 C-237.45811475 1179.92994682 -245.5412726 1180.09998441 -253.625 1180.25 C-254.36889984 1180.26539825 -255.11279968 1180.28079651 -255.87924194 1180.29666138 C-257.72012768 1180.33267865 -259.56124263 1180.35645223 -261.40234375 1180.37890625 C-262.34585693 1180.39252197 -263.28937012 1180.4061377 -264.26147461 1180.42016602 C-268.24713644 1180.13321154 -269.94827995 1179.23263092 -272.625 1176.25 C-273.2413763 1170.64097569 -271.85219125 1166.81834582 -269.1875 1162 C-266.62826941 1157.25191063 -266.62826941 1157.25191063 -264.625 1152.25 C-263.965 1152.25 -263.305 1152.25 -262.625 1152.25 C-262.47804688 1151.71632813 -262.33109375 1151.18265625 -262.1796875 1150.6328125 C-260.87856934 1146.31070736 -259.34850186 1142.57344163 -256.9375 1138.75 C-254.12125988 1134.27468774 -251.88347338 1129.67259258 -249.6875 1124.875 C-246.89882201 1118.80521332 -243.85263456 1113.05513832 -240.40234375 1107.328125 C-237.9668665 1103.11019956 -235.83275452 1098.76389387 -233.68237305 1094.39575195 C-231.03888297 1089.03787849 -228.26558117 1083.76117017 -225.42749023 1078.50415039 C-223.03578094 1074.06274564 -220.78562313 1069.5693623 -218.6328125 1065.0078125 C-217.625 1063.25 -217.625 1063.25 -215.625 1062.25 C-215.1412199 1060.57038251 -214.66277554 1058.88893223 -214.21923828 1057.19824219 C-213.25775603 1054.04597089 -211.66098612 1051.2382224 -210.0625 1048.375 C-209.34335395 1047.05620547 -208.62461995 1045.73718619 -207.90625 1044.41796875 C-207.53242187 1043.73653809 -207.15859375 1043.05510742 -206.7734375 1042.35302734 C-204.84049914 1038.81341615 -202.95028712 1035.25134469 -201.0625 1031.6875 C-200.68351563 1030.97303711 -200.30453125 1030.25857422 -199.9140625 1029.52246094 C-196.9732228 1023.95768237 -194.16007245 1018.33780699 -191.36328125 1012.69921875 C-188.57376623 1007.16406873 -185.63084086 1001.71312743 -182.69726562 996.25341797 C-180.39205248 991.94636445 -178.11912573 987.62209799 -175.84033203 983.30102539 C-173.81330858 979.46563061 -171.74579912 975.65963047 -169.625 971.875 C-166.44434394 966.10729222 -163.69662382 960.13660355 -160.95898438 954.14892578 C-158.8410025 949.57739309 -156.5056041 945.32854422 -153.77905273 941.09301758 C-152.13401834 938.46590426 -150.78812738 935.725556 -149.4375 932.9375 C-146.71413389 927.38858477 -143.89051977 921.90114687 -141 916.4375 C-136.83462941 908.55181909 -132.68811 900.65656748 -128.5625 892.75 C-127.98999512 891.6571167 -127.41749023 890.5642334 -126.82763672 889.43823242 C-126.29541504 888.41705322 -125.76319336 887.39587402 -125.21484375 886.34375 C-124.73909912 885.43302734 -124.26335449 884.52230469 -123.77319336 883.58398438 C-122.52944104 881.18835506 -122.52944104 881.18835506 -121.625 878.25 C-120.965 878.25 -120.305 878.25 -119.625 878.25 C-119.52832031 877.73050781 -119.43164062 877.21101563 -119.33203125 876.67578125 C-118.37709549 873.3994547 -116.85705885 870.46568836 -115.3125 867.4375 C-114.96638672 866.75171875 -114.62027344 866.0659375 -114.26367188 865.359375 C-110.59523823 858.12423205 -106.8234447 850.94230335 -103.05615234 843.75830078 C-100.11520265 838.14139369 -97.23626129 832.50141071 -94.4375 826.8125 C-91.49009364 820.83243172 -88.28730381 815.03345548 -84.97973633 809.24609375 C-82.01561409 804.02750587 -79.30078395 798.71394742 -76.64892578 793.33129883 C-74.17744435 788.32400638 -71.61710126 783.37021333 -69 778.4375 C-68.61787354 777.71699463 -68.23574707 776.99648926 -67.84204102 776.25415039 C-65.78840043 772.39640189 -63.69280806 768.5660803 -61.5625 764.75 C-59.07658782 760.23700792 -56.90649154 755.61308817 -54.75 750.9375 C-51.69450852 744.32151928 -48.30992928 738.06372693 -44.625 731.7734375 C-42.0885001 727.38162665 -39.87015357 722.83944726 -37.62939453 718.29199219 C-35.32852736 713.63163702 -32.95235874 709.01995426 -30.5 704.4375 C-30.16411865 703.80948486 -29.8282373 703.18146973 -29.48217773 702.53442383 C-28.04391697 699.85610036 -26.59028249 697.18797257 -25.10546875 694.53515625 C-22.29823597 689.51616431 -19.73767313 684.42982083 -17.30883789 679.21923828 C-16.13652204 676.71214086 -14.94156392 674.21690163 -13.7421875 671.72265625 C-12.53140551 669.20324601 -11.41532804 666.72186402 -10.3828125 664.12109375 C-6.41754988 655.38384267 2.64137936 652.84533496 10.96704102 649.33740234 C14.22778866 647.86489195 17.29755404 646.11170446 20.40356445 644.34106445 C22.64555372 643.10026568 24.90684629 642.12939538 27.3125 641.25 C33.2261387 638.98049123 38.89503239 636.20998176 44.4140625 633.1015625 C46.375 632.25 46.375 632.25 50.375 632.25 C50.375 631.59 50.375 630.93 50.375 630.25 C51.0040625 630.00765625 51.633125 629.7653125 52.28125 629.515625 C53.1371875 629.18046875 53.993125 628.8453125 54.875 628.5 C55.7103125 628.17515625 56.545625 627.8503125 57.40625 627.515625 C59.70549471 626.53542068 61.90285613 625.50260618 64.12890625 624.375 C68.62463797 622.09800985 73.20805509 620.04596801 77.8125 618 C90.64264152 612.25776408 103.3478267 606.31315919 115.89697266 599.97949219 C119.3988002 598.21755528 122.91155292 596.51569663 126.5 594.9375 C127.50933594 594.49277344 127.50933594 594.49277344 128.5390625 594.0390625 C130.30973554 593.27804983 132.09222418 592.5447115 133.875 591.8125 C136.62234125 590.46755287 136.62234125 590.46755287 137.25 587.5625 C137.311875 586.4178125 137.311875 586.4178125 137.375 585.25 C131.45767036 581.22621584 125.33378622 578.39560234 118.7421875 575.6796875 C115.54493793 574.32215462 112.47140819 572.8213745 109.375 571.25 C107.77515129 570.51140753 106.17091049 569.7822572 104.5625 569.0625 C102.49931646 568.12650525 100.43692552 567.18876284 98.375 566.25 C97.66649902 565.92773438 96.95799805 565.60546875 96.22802734 565.2734375 C93.8987946 564.20999579 91.57409284 563.1371224 89.25 562.0625 C88.49098389 561.71743408 87.73196777 561.37236816 86.94995117 561.0168457 C81.48906314 558.47812627 81.48906314 558.47812627 80.375 556.25 C78.71024314 555.90725594 77.04304677 555.57635698 75.375 555.25 C68.69038462 552.88076923 68.69038462 552.88076923 67.375 550.25 C65.49767157 549.44603175 65.49767157 549.44603175 63.25 548.8125 C59.17096518 547.52101876 55.27054403 546.01675231 51.375 544.25 C50.28960938 543.77046875 49.20421875 543.2909375 48.0859375 542.796875 C46.90257812 542.26578125 45.71921875 541.7346875 44.5 541.1875 C43.36820313 540.68089844 42.23640625 540.17429687 41.0703125 539.65234375 C38.375 538.25 38.375 538.25 37.375 536.25 C35.49480614 535.80559054 33.61399997 535.36363893 31.73046875 534.93359375 C28.31208824 533.94152644 25.33590064 532.30681514 22.19140625 530.66015625 C19.0759451 529.10026516 15.90678144 527.76949131 12.6875 526.4375 C-10.58554865 516.46696987 -10.58554865 516.46696987 -15.625 506.25 C-16.58206837 504.60343076 -17.54037103 502.95757823 -18.5 501.3125 C-20.625 497.52358491 -20.625 497.52358491 -20.625 495.25 C-21.285 495.25 -21.945 495.25 -22.625 495.25 C-22.9653125 494.53457031 -23.305625 493.81914063 -23.65625 493.08203125 C-26.97307916 486.26312449 -30.65510227 479.82737494 -34.68359375 473.40625 C-36.97825004 469.67570215 -39.05949312 465.85841798 -41.12890625 462 C-44.37817575 456.02745241 -47.82722195 450.15805416 -51.40234375 444.375 C-51.95019531 443.488125 -52.49804688 442.60125 -53.0625 441.6875 C-53.80306641 440.50994141 -53.80306641 440.50994141 -54.55859375 439.30859375 C-55.625 437.25 -55.625 437.25 -55.625 434.25 C-56.285 434.25 -56.945 434.25 -57.625 434.25 C-58.62984204 432.29414675 -59.62873805 430.33523763 -60.625 428.375 C-61.181875 427.28445313 -61.73875 426.19390625 -62.3125 425.0703125 C-63.625 422.25 -63.625 422.25 -63.625 420.25 C-64.285 419.92 -64.945 419.59 -65.625 419.25 C-67.6345568 416.31295544 -68.625 414.85777515 -68.625 411.25 C-69.285 411.25 -69.945 411.25 -70.625 411.25 C-70.90698242 410.70585449 -71.18896484 410.16170898 -71.47949219 409.60107422 C-72.77442954 407.10717972 -74.07466792 404.61608561 -75.375 402.125 C-76.04015625 400.84109375 -76.04015625 400.84109375 -76.71875 399.53125 C-78.65029751 395.83858565 -80.55810944 392.23542728 -82.953125 388.8203125 C-84.625 386.25 -84.625 386.25 -84.625 383.25 C-85.285 383.25 -85.945 383.25 -86.625 383.25 C-86.93953125 382.60933594 -87.2540625 381.96867187 -87.578125 381.30859375 C-89.59890565 377.22442564 -91.62166711 373.17612529 -93.9375 369.25 C-95.625 366.25 -95.625 366.25 -95.625 364.25 C-96.285 363.92 -96.945 363.59 -97.625 363.25 C-98.73828125 361.5 -98.73828125 361.5 -99.9375 359.25 C-100.3809375 358.43015625 -100.824375 357.6103125 -101.28125 356.765625 C-101.7246875 355.93546875 -102.168125 355.1053125 -102.625 354.25 C-106.17255785 347.68222399 -110.03023015 341.35753288 -114.05078125 335.0703125 C-115.625 332.25 -115.625 332.25 -115.625 329.25 C-116.285 328.92 -116.945 328.59 -117.625 328.25 C-118.29166667 326.25 -118.95833333 324.25 -119.625 322.25 C-120.285 321.92 -120.945 321.59 -121.625 321.25 C-122.29166667 319.25 -122.95833333 317.25 -123.625 315.25 C-124.285 314.92 -124.945 314.59 -125.625 314.25 C-126.35193904 312.27111039 -127.02316251 310.27045442 -127.625 308.25 C-128.285 308.25 -128.945 308.25 -129.625 308.25 C-130.058125 306.5484375 -130.058125 306.5484375 -130.5 304.8125 C-130.87125 303.636875 -131.2425 302.46125 -131.625 301.25 C-132.285 300.92 -132.945 300.59 -133.625 300.25 C-134.72310061 298.66259032 -135.75691731 297.03013782 -136.75 295.375 C-137.28882813 294.49070312 -137.82765625 293.60640625 -138.3828125 292.6953125 C-139.625 290.25 -139.625 290.25 -139.625 287.25 C-140.285 287.25 -140.945 287.25 -141.625 287.25 C-142.62984204 285.29414675 -143.62873805 283.33523763 -144.625 281.375 C-145.181875 280.28445313 -145.73875 279.19390625 -146.3125 278.0703125 C-147.625 275.25 -147.625 275.25 -147.625 273.25 C-148.285 272.92 -148.945 272.59 -149.625 272.25 C-151.625 269.25 -151.625 269.25 -151.625 266.25 C-152.285 265.92 -152.945 265.59 -153.625 265.25 C-154.87890625 263.32421875 -154.87890625 263.32421875 -156.1875 260.9375 C-156.62191406 260.15761719 -157.05632812 259.37773437 -157.50390625 258.57421875 C-158.625 256.25 -158.625 256.25 -159.15234375 254.01953125 C-159.30832031 253.43558594 -159.46429687 252.85164062 -159.625 252.25 C-160.285 251.92 -160.945 251.59 -161.625 251.25 C-162.29166667 249.25 -162.95833333 247.25 -163.625 245.25 C-164.285 244.92 -164.945 244.59 -165.625 244.25 C-166.72310061 242.66259032 -167.75691731 241.03013782 -168.75 239.375 C-169.28882813 238.49070312 -169.82765625 237.60640625 -170.3828125 236.6953125 C-171.625 234.25 -171.625 234.25 -171.625 231.25 C-172.285 231.25 -172.945 231.25 -173.625 231.25 C-174.62984204 229.29414675 -175.62873805 227.33523763 -176.625 225.375 C-177.181875 224.28445313 -177.73875 223.19390625 -178.3125 222.0703125 C-179.625 219.25 -179.625 219.25 -179.625 217.25 C-180.285 216.92 -180.945 216.59 -181.625 216.25 C-183.625 213.25 -183.625 213.25 -183.625 210.25 C-184.285 209.92 -184.945 209.59 -185.625 209.25 C-186.72603609 207.47293916 -187.75903304 205.65320915 -188.75 203.8125 C-189.28882813 202.82378906 -189.82765625 201.83507812 -190.3828125 200.81640625 C-191.625 198.25 -191.625 198.25 -191.625 196.25 C-192.285 196.25 -192.945 196.25 -193.625 196.25 C-194.09550781 195.28578125 -194.56601562 194.3215625 -195.05078125 193.328125 C-195.67947179 192.05197704 -196.30839007 190.77594126 -196.9375 189.5 C-197.4005957 188.54867187 -197.4005957 188.54867187 -197.87304688 187.578125 C-199.20757707 184.88096924 -200.52557225 182.38017629 -202.35546875 179.984375 C-203.625 178.25 -203.625 178.25 -203.625 175.25 C-204.285 175.25 -204.945 175.25 -205.625 175.25 C-206.01171875 174.45335937 -206.3984375 173.65671875 -206.796875 172.8359375 C-209.46922769 167.39862584 -212.15226487 162.22758702 -215.625 157.25 C-219.625 150.87758621 -219.625 150.87758621 -219.625 147.25 C-220.285 147.25 -220.945 147.25 -221.625 147.25 C-221.98851562 146.49976563 -222.35203125 145.74953125 -222.7265625 144.9765625 C-226.06127442 138.18743105 -229.65047011 131.68151201 -233.625 125.25 C-237.90346012 118.20632646 -242.02182716 111.10244 -245.91796875 103.83984375 C-249.4585889 97.26440632 -253.20113557 90.82531981 -257.00463867 84.39990234 C-259.63979449 79.94349965 -262.22078298 75.46660641 -264.6875 70.9140625 C-265.58934713 69.31328384 -266.60582679 67.77875981 -267.625 66.25 C-267.625 65.26 -267.625 64.27 -267.625 63.25 C-268.285 63.25 -268.945 63.25 -269.625 63.25 C-270.62984204 61.29414675 -271.62873805 59.33523763 -272.625 57.375 C-273.181875 56.28445312 -273.73875 55.19390625 -274.3125 54.0703125 C-275.625 51.25 -275.625 51.25 -275.625 49.25 C-276.285 49.25 -276.945 49.25 -277.625 49.25 C-279.0856285 46.60261084 -279.625 45.35551666 -279.625 42.25 C-280.285 42.25 -280.945 42.25 -281.625 42.25 C-282.10126831 41.32719238 -282.10126831 41.32719238 -282.5871582 40.38574219 C-284.03350963 37.5885307 -285.48544086 34.79425251 -286.9375 32 C-287.43701172 31.03191406 -287.93652344 30.06382812 -288.45117188 29.06640625 C-288.93779297 28.13183594 -289.42441406 27.19726562 -289.92578125 26.234375 C-290.37091064 25.37553711 -290.81604004 24.51669922 -291.2746582 23.63183594 C-292.57466688 21.21633903 -292.57466688 21.21633903 -294.28027344 19.06567383 C-295.92252638 16.84827457 -295.93111952 15.88205674 -295.5625 13.1875 C-295.48902344 12.51589844 -295.41554688 11.84429687 -295.33984375 11.15234375 C-294.34042879 8.49269847 -293.03318733 7.72760833 -290.625 6.25 C-288.05032349 5.82556152 -288.05032349 5.82556152 -285.09033203 5.75585938 C-283.97125458 5.722948 -282.85217712 5.69003662 -281.69918823 5.65612793 C-279.87195724 5.62525085 -279.87195724 5.62525085 -278.0078125 5.59375 C-276.72641388 5.56124146 -275.44501526 5.52873291 -274.12478638 5.49523926 C-269.95851002 5.39198546 -265.79194781 5.31986276 -261.625 5.25 C-260.24393427 5.22509565 -258.8628714 5.20003158 -257.48181152 5.17480469 C-248.23284497 5.00911615 -238.98349074 4.88928215 -229.73374176 4.77747726 C-222.90052648 4.69342186 -216.06743871 4.59939785 -209.234375 4.50390625 C-208.49861866 4.49366991 -207.76286232 4.48343357 -207.00481033 4.47288704 C-193.95998713 4.28928754 -180.9208931 4.0024202 -167.88232422 3.5546875 C-162.12107371 3.35882868 -156.37673215 3.23685183 -150.61181641 3.26782227 C-143.11264202 3.27680995 -135.63477811 3.05935118 -128.140625 2.78125 C-113.54867232 2.26936944 -98.95834941 2.00184764 -84.3586731 1.8041687 C-77.5033349 1.71095202 -70.64813177 1.60917021 -63.79296875 1.50390625 C-63.1238188 1.49366991 -62.45466885 1.48343357 -61.76524162 1.47288704 C-50.73584132 1.30225451 -39.71246888 1.0382726 -28.6875 0.6875 C-19.12607584 0.39394626 -9.56559839 0.10722936 0 0 Z " transform="translate(1136.625,162.75)"/>
<path d="M0 0 C0.66 0.33 1.32 0.66 2 1 C0.02 2.98 -1.96 4.96 -4 7 C-4.66 6.67 -5.32 6.34 -6 6 C-2.25 1.125 -2.25 1.125 0 0 Z " fill="#000000" transform="translate(321,172)"/>
</svg>
